<svg xmlns="http://www.w3.org/2000/svg" width="640" height="400" viewBox="0 0 640 400">
  <defs>
    <linearGradient id="bg" x1="0" y1="0" x2="0" y2="1">
      <stop offset="0%" stop-color="#080b14"/>
      <stop offset="100%" stop-color="#111827"/>
    </linearGradient>
  </defs>
  <rect width="640" height="400" fill="url(#bg)" rx="12"/>
  <!-- Header -->
  <text x="24" y="36" font-family="system-ui,sans-serif" font-size="16" font-weight="700" fill="#eef3ff">Sistema</text>
  <!-- Backend status -->
  <rect x="24" y="56" width="592" height="52" rx="10" fill="#111827" stroke="#2ee6a6" stroke-width="1.5"/>
  <circle cx="48" cy="82" r="8" fill="#2ee6a6" opacity="0.2"/>
  <circle cx="48" cy="82" r="4" fill="#2ee6a6"/>
  <text x="64" y="78" font-family="system-ui,sans-serif" font-size="13" font-weight="700" fill="#2ee6a6">Backend Online</text>
  <text x="64" y="96" font-family="system-ui,sans-serif" font-size="10" fill="#9ba8c7">weather-engine @ localhost:8321 • Uptime 4h 23m</text>
  <text x="520" y="86" font-family="system-ui,sans-serif" font-size="11" fill="#9ba8c7">Latency</text>
  <text x="572" y="86" font-family="system-ui,sans-serif" font-size="13" font-weight="700" fill="#2ee6a6">12ms</text>
  <!-- Service cards -->
  <rect x="24" y="124" width="188" height="80" rx="10" fill="#111827" stroke="#2a3756" stroke-width="1"/>
  <circle cx="44" cy="148" r="4" fill="#2ee6a6"/>
  <text x="56" y="152" font-family="system-ui,sans-serif" font-size="11" font-weight="600" fill="#eef3ff">Forecast API</text>
  <text x="44" y="174" font-family="system-ui,sans-serif" font-size="10" fill="#9ba8c7">GFS + ECMWF + ICON</text>
  <text x="44" y="190" font-family="system-ui,sans-serif" font-size="10" fill="#2ee6a6">All models synced</text>
  <rect x="226" y="124" width="188" height="80" rx="10" fill="#111827" stroke="#2a3756" stroke-width="1"/>
  <circle cx="246" cy="148" r="4" fill="#2ee6a6"/>
  <text x="258" y="152" font-family="system-ui,sans-serif" font-size="11" font-weight="600" fill="#eef3ff">Polymarket</text>
  <text x="246" y="174" font-family="system-ui,sans-serif" font-size="10" fill="#9ba8c7">47 active markets</text>
  <text x="246" y="190" font-family="system-ui,sans-serif" font-size="10" fill="#2ee6a6">Streaming live</text>
  <rect x="428" y="124" width="188" height="80" rx="10" fill="#111827" stroke="#2a3756" stroke-width="1"/>
  <circle cx="448" cy="148" r="4" fill="#ffd166"/>
  <text x="460" y="152" font-family="system-ui,sans-serif" font-size="11" font-weight="600" fill="#eef3ff">Data Pipeline</text>
  <text x="448" y="174" font-family="system-ui,sans-serif" font-size="10" fill="#9ba8c7">Last update 35m ago</text>
  <text x="448" y="190" font-family="system-ui,sans-serif" font-size="10" fill="#ffd166">Next in 25m</text>
  <!-- API latency chart -->
  <rect x="24" y="220" width="290" height="168" rx="10" fill="#111827" stroke="#2a3756" stroke-width="1"/>
  <text x="44" y="246" font-family="system-ui,sans-serif" font-size="11" font-weight="600" fill="#eef3ff">API Response Time (ms)</text>
  <!-- Bar chart -->
  <rect x="50" y="310" width="24" height="50" rx="3" fill="#25d0ff" opacity="0.7"/>
  <text x="55" y="370" font-family="system-ui,sans-serif" font-size="8" fill="#9ba8c7">GET</text>
  <rect x="90" y="290" width="24" height="70" rx="3" fill="#7c8cff" opacity="0.7"/>
  <text x="91" y="370" font-family="system-ui,sans-serif" font-size="8" fill="#9ba8c7">POST</text>
  <rect x="130" y="320" width="24" height="40" rx="3" fill="#2ee6a6" opacity="0.7"/>
  <text x="131" y="370" font-family="system-ui,sans-serif" font-size="8" fill="#9ba8c7">WS</text>
  <rect x="170" y="300" width="24" height="60" rx="3" fill="#ffd166" opacity="0.7"/>
  <text x="171" y="370" font-family="system-ui,sans-serif" font-size="8" fill="#9ba8c7">Poly</text>
  <rect x="210" y="330" width="24" height="30" rx="3" fill="#25d0ff" opacity="0.7"/>
  <text x="211" y="370" font-family="system-ui,sans-serif" font-size="8" fill="#9ba8c7">Fcst</text>
  <rect x="250" y="315" width="24" height="45" rx="3" fill="#2ee6a6" opacity="0.7"/>
  <text x="253" y="370" font-family="system-ui,sans-serif" font-size="8" fill="#9ba8c7">Map</text>
  <!-- Logs panel -->
  <rect x="326" y="220" width="290" height="168" rx="10" fill="#111827" stroke="#2a3756" stroke-width="1"/>
  <text x="346" y="246" font-family="system-ui,sans-serif" font-size="11" font-weight="600" fill="#eef3ff">Recent Logs</text>
  <text x="346" y="270" font-family="monospace" font-size="9" fill="#2ee6a6">17:48  Forecast updated — Roma</text>
  <text x="346" y="286" font-family="monospace" font-size="9" fill="#2ee6a6">17:47  Market sync complete</text>
  <text x="346" y="302" font-family="monospace" font-size="9" fill="#25d0ff">17:45  Bet placed NYC &gt; 5°C</text>
  <text x="346" y="318" font-family="monospace" font-size="9" fill="#2ee6a6">17:42  Pipeline run OK</text>
  <text x="346" y="334" font-family="monospace" font-size="9" fill="#ffd166">17:40  ICON model delayed</text>
  <text x="346" y="350" font-family="monospace" font-size="9" fill="#2ee6a6">17:38  Health check OK</text>
  <text x="346" y="366" font-family="monospace" font-size="9" fill="#2ee6a6">17:35  Forecast updated — NYC</text>
</svg>
