<svg xmlns="http://www.w3.org/2000/svg" width="640" height="400" viewBox="0 0 640 400">
  <defs>
    <linearGradient id="bg" x1="0" y1="0" x2="0" y2="1">
      <stop offset="0%" stop-color="#080b14"/>
      <stop offset="100%" stop-color="#111827"/>
    </linearGradient>
    <linearGradient id="pnl" x1="0" y1="0" x2="0" y2="1">
      <stop offset="0%" stop-color="#2ee6a6" stop-opacity="0.3"/>
      <stop offset="100%" stop-color="#2ee6a6" stop-opacity="0"/>
    </linearGradient>
  </defs>
  <rect width="640" height="400" fill="url(#bg)" rx="12"/>
  <!-- Header -->
  <text x="24" y="36" font-family="system-ui,sans-serif" font-size="16" font-weight="700" fill="#eef3ff">Storico</text>
  <!-- Stats -->
  <rect x="24" y="56" width="140" height="56" rx="8" fill="#111827" stroke="#2a3756" stroke-width="1"/>
  <text x="40" y="76" font-family="system-ui,sans-serif" font-size="10" fill="#9ba8c7">Total Trades</text>
  <text x="40" y="98" font-family="system-ui,sans-serif" font-size="20" font-weight="700" fill="#eef3ff">156</text>
  <rect x="178" y="56" width="140" height="56" rx="8" fill="#111827" stroke="#2a3756" stroke-width="1"/>
  <text x="194" y="76" font-family="system-ui,sans-serif" font-size="10" fill="#9ba8c7">Win Rate</text>
  <text x="194" y="98" font-family="system-ui,sans-serif" font-size="20" font-weight="700" fill="#2ee6a6">68.3%</text>
  <rect x="332" y="56" width="140" height="56" rx="8" fill="#111827" stroke="#2a3756" stroke-width="1"/>
  <text x="348" y="76" font-family="system-ui,sans-serif" font-size="10" fill="#9ba8c7">Max Drawdown</text>
  <text x="348" y="98" font-family="system-ui,sans-serif" font-size="20" font-weight="700" fill="#ff6b7a">-8.4%</text>
  <rect x="486" y="56" width="130" height="56" rx="8" fill="#111827" stroke="#2a3756" stroke-width="1"/>
  <text x="502" y="76" font-family="system-ui,sans-serif" font-size="10" fill="#9ba8c7">Profit Factor</text>
  <text x="502" y="98" font-family="system-ui,sans-serif" font-size="20" font-weight="700" fill="#2ee6a6">2.14</text>
  <!-- P&L Chart -->
  <rect x="24" y="126" width="592" height="140" rx="10" fill="#111827" stroke="#2a3756" stroke-width="1"/>
  <text x="44" y="150" font-family="system-ui,sans-serif" font-size="11" font-weight="600" fill="#eef3ff">Cumulative P&amp;L</text>
  <polyline points="50,240 80,238 110,230 140,235 170,225 200,218 230,220 260,210 290,208 320,200 350,195 380,190 410,188 440,180 470,175 500,168 530,165 560,155 590,148" fill="none" stroke="#2ee6a6" stroke-width="2.5" stroke-linecap="round" stroke-linejoin="round"/>
  <polygon points="50,240 80,238 110,230 140,235 170,225 200,218 230,220 260,210 290,208 320,200 350,195 380,190 410,188 440,180 470,175 500,168 530,165 560,155 590,148 590,252 50,252" fill="url(#pnl)"/>
  <line x1="50" y1="252" x2="590" y2="252" stroke="#2a3756" stroke-width="1"/>
  <!-- Trade history table -->
  <rect x="24" y="280" width="592" height="24" rx="4" fill="#162033"/>
  <text x="40" y="296" font-family="system-ui,sans-serif" font-size="10" font-weight="600" fill="#9ba8c7">Date</text>
  <text x="140" y="296" font-family="system-ui,sans-serif" font-size="10" font-weight="600" fill="#9ba8c7">Market</text>
  <text x="340" y="296" font-family="system-ui,sans-serif" font-size="10" font-weight="600" fill="#9ba8c7">Side</text>
  <text x="420" y="296" font-family="system-ui,sans-serif" font-size="10" font-weight="600" fill="#9ba8c7">Stake</text>
  <text x="510" y="296" font-family="system-ui,sans-serif" font-size="10" font-weight="600" fill="#9ba8c7">Result</text>
  <!-- Row 1 -->
  <text x="40" y="322" font-family="system-ui,sans-serif" font-size="10" fill="#eef3ff">24 Feb</text>
  <text x="140" y="322" font-family="system-ui,sans-serif" font-size="10" fill="#eef3ff">NYC &gt; 5°C</text>
  <text x="340" y="322" font-family="system-ui,sans-serif" font-size="10" fill="#2ee6a6">YES</text>
  <text x="420" y="322" font-family="system-ui,sans-serif" font-size="10" fill="#eef3ff">$39.90</text>
  <text x="510" y="322" font-family="system-ui,sans-serif" font-size="10" font-weight="700" fill="#2ee6a6">+$24.40</text>
  <!-- Row 2 -->
  <text x="40" y="344" font-family="system-ui,sans-serif" font-size="10" fill="#eef3ff">23 Feb</text>
  <text x="140" y="344" font-family="system-ui,sans-serif" font-size="10" fill="#eef3ff">London rain</text>
  <text x="340" y="344" font-family="system-ui,sans-serif" font-size="10" fill="#ff6b7a">NO</text>
  <text x="420" y="344" font-family="system-ui,sans-serif" font-size="10" fill="#eef3ff">$25.00</text>
  <text x="510" y="344" font-family="system-ui,sans-serif" font-size="10" font-weight="700" fill="#ff6b7a">-$25.00</text>
  <!-- Row 3 -->
  <text x="40" y="366" font-family="system-ui,sans-serif" font-size="10" fill="#eef3ff">23 Feb</text>
  <text x="140" y="366" font-family="system-ui,sans-serif" font-size="10" fill="#eef3ff">Miami &gt; 25°C</text>
  <text x="340" y="366" font-family="system-ui,sans-serif" font-size="10" fill="#2ee6a6">YES</text>
  <text x="420" y="366" font-family="system-ui,sans-serif" font-size="10" fill="#eef3ff">$18.50</text>
  <text x="510" y="366" font-family="system-ui,sans-serif" font-size="10" font-weight="700" fill="#2ee6a6">+$3.15</text>
  <!-- Separator lines -->
  <line x1="32" y1="308" x2="608" y2="308" stroke="#2a3756" stroke-width="0.5"/>
  <line x1="32" y1="330" x2="608" y2="330" stroke="#2a3756" stroke-width="0.5"/>
  <line x1="32" y1="352" x2="608" y2="352" stroke="#2a3756" stroke-width="0.5"/>
</svg>
